<svg width="18" height="18" viewBox="0 0 18 18" fill="none" xmlns="http://www.w3.org/2000/svg">
<path d="M11.8125 4.5C11.8125 5.24592 11.5162 5.96129 10.9887 6.48874C10.4613 7.01618 9.74592 7.3125 9 7.3125C8.25408 7.3125 7.53871 7.01618 7.01126 6.48874C6.48381 5.96129 6.1875 5.24592 6.1875 4.5C6.1875 3.75408 6.48381 3.03871 7.01126 2.51126C7.53871 1.98382 8.25408 1.6875 9 1.6875C9.74592 1.6875 10.4613 1.98382 10.9887 2.51126C11.5162 3.03871 11.8125 3.75408 11.8125 4.5ZM3.37575 15.0885C3.39985 13.6128 4.003 12.2056 5.05513 11.1705C6.10726 10.1354 7.52406 9.55535 9 9.55535C10.4759 9.55535 11.8927 10.1354 12.9449 11.1705C13.997 12.2056 14.6001 13.6128 14.6242 15.0885C12.8598 15.8976 10.9411 16.3151 9 16.3125C6.993 16.3125 5.088 15.8745 3.37575 15.0885Z" stroke="#FFA920" stroke-width="1.5" stroke-linecap="round" stroke-linejoin="round"/>
</svg>
