<svg width="18" height="17" viewBox="0 0 18 17" fill="none" xmlns="http://www.w3.org/2000/svg">
<path d="M1.6875 4.5625C1.6875 10.7755 6.7245 15.8125 12.9375 15.8125H14.625C15.0726 15.8125 15.5018 15.6347 15.8182 15.3182C16.1347 15.0018 16.3125 14.5726 16.3125 14.125V13.096C16.3125 12.709 16.0493 12.3715 15.6735 12.2778L12.3563 11.4482C12.0263 11.3657 11.6798 11.4895 11.4765 11.761L10.749 12.7308C10.5375 13.0128 10.1722 13.1372 9.8415 13.0157C8.61366 12.5643 7.49861 11.8514 6.57359 10.9264C5.64856 10.0014 4.93566 8.88634 4.48425 7.6585C4.36275 7.32775 4.48725 6.9625 4.76925 6.751L5.739 6.0235C6.01125 5.82025 6.13425 5.473 6.05175 5.14375L5.22225 1.8265C5.1766 1.64402 5.07129 1.48203 4.92304 1.36625C4.77479 1.25048 4.5921 1.18756 4.404 1.1875H3.375C2.92745 1.1875 2.49822 1.36529 2.18176 1.68176C1.86529 1.99822 1.6875 2.42745 1.6875 2.875V4.5625Z" stroke="#FFA920" stroke-width="1.5" stroke-linecap="round" stroke-linejoin="round"/>
</svg>
