<svg width="14" height="17" viewBox="0 0 14 17" fill="none" xmlns="http://www.w3.org/2000/svg">
<path d="M9.81175 4C9.81175 4.74592 9.51543 5.46129 8.98799 5.98874C8.46054 6.51618 7.74517 6.8125 6.99925 6.8125C6.25333 6.8125 5.53796 6.51618 5.01051 5.98874C4.48307 5.46129 4.18675 4.74592 4.18675 4C4.18675 3.25408 4.48307 2.53871 5.01051 2.01126C5.53796 1.48382 6.25333 1.1875 6.99925 1.1875C7.74517 1.1875 8.46054 1.48382 8.98799 2.01126C9.51543 2.53871 9.81175 3.25408 9.81175 4ZM1.375 14.5885C1.3991 13.1128 2.00225 11.7056 3.05438 10.6705C4.10651 9.63545 5.52332 9.05535 6.99925 9.05535C8.47518 9.05535 9.89199 9.63545 10.9441 10.6705C11.9962 11.7056 12.5994 13.1128 12.6235 14.5885C10.859 15.3976 8.94036 15.8151 6.99925 15.8125C4.99225 15.8125 3.08725 15.3745 1.375 14.5885Z" stroke="#8E8E93" stroke-width="1.5" stroke-linecap="round" stroke-linejoin="round"/>
</svg>
